<?xml version="1.0" encoding="UTF-8" standalone="no"?>
<!-- Created with Inkscape (http://www.inkscape.org/) -->

<svg
   width="210mm"
   height="210mm"
   viewBox="0 0 210 210"
   version="1.1"
   id="svg1"
   xml:space="preserve"
   inkscape:version="1.3 (0e150ed6c4, 2023-07-21)"
   sodipodi:docname="cmakerlogo.svg"
   inkscape:export-filename="cmakerlogo.png"
   inkscape:export-xdpi="96"
   inkscape:export-ydpi="96"
   xmlns:inkscape="http://www.inkscape.org/namespaces/inkscape"
   xmlns:sodipodi="http://sodipodi.sourceforge.net/DTD/sodipodi-0.dtd"
   xmlns="http://www.w3.org/2000/svg"
   xmlns:svg="http://www.w3.org/2000/svg"><sodipodi:namedview
     id="namedview1"
     pagecolor="#505050"
     bordercolor="#ffffff"
     borderopacity="1"
     inkscape:showpageshadow="0"
     inkscape:pageopacity="0"
     inkscape:pagecheckerboard="1"
     inkscape:deskcolor="#505050"
     inkscape:document-units="mm"
     inkscape:zoom="1.1338707"
     inkscape:cx="616.91336"
     inkscape:cy="543.27181"
     inkscape:window-width="3802"
     inkscape:window-height="2082"
     inkscape:window-x="3859"
     inkscape:window-y="19"
     inkscape:window-maximized="1"
     inkscape:current-layer="layer1" /><defs
     id="defs1"><clipPath
       clipPathUnits="userSpaceOnUse"
       id="clipPath13"><circle
         style="fill:#b3b3b3;stroke-width:0.053658"
         id="circle13"
         cx="-30.420525"
         cy="6.1802874"
         r="17.345642"
         transform="rotate(-116.48209)" /></clipPath><clipPath
       clipPathUnits="userSpaceOnUse"
       id="clipPath14"><ellipse
         style="fill:#b3b3b3;stroke-width:0.0543281"
         id="circle14"
         cx="-26.072977"
         cy="27.881746"
         rx="17.345665"
         ry="17.781536"
         transform="matrix(-0.99997314,-0.00732874,-0.00697381,0.99997568,0,0)" /></clipPath><clipPath
       clipPathUnits="userSpaceOnUse"
       id="clipPath15"><circle
         style="fill:#b3b3b3;stroke-width:0.053658"
         id="circle15"
         cx="11.088626"
         cy="-32.295338"
         r="17.345642"
         transform="rotate(116.87418)" /></clipPath><filter
       style="color-interpolation-filters:sRGB"
       inkscape:label="Lightness-Contrast"
       id="filter20"
       x="0"
       y="0"
       width="1"
       height="1"><feColorMatrix
         values="11 0 0 -5.00456 -5 0 11 0 -5.00456 -5 0 0 11 -5.00456 -5 0 0 0 1 0"
         id="feColorMatrix20"
         result="fbSourceGraphic" /><feColorMatrix
         result="fbSourceGraphicAlpha"
         in="fbSourceGraphic"
         values="0 0 0 -1 0 0 0 0 -1 0 0 0 0 -1 0 0 0 0 1 0"
         id="feColorMatrix21" /><feColorMatrix
         id="feColorMatrix22"
         values="11 0 0 -5.00456 -5 0 11 0 -5.00456 -5 0 0 11 -5.00456 -5 0 0 0 1 0"
         in="fbSourceGraphic"
         result="fbSourceGraphic" /><feColorMatrix
         result="fbSourceGraphicAlpha"
         in="fbSourceGraphic"
         values="0 0 0 -1 0 0 0 0 -1 0 0 0 0 -1 0 0 0 0 1 0"
         id="feColorMatrix23" /><feColorMatrix
         id="feColorMatrix24"
         values="11 0 0 -5.00456 -5 0 11 0 -5.00456 -5 0 0 11 -5.00456 -5 0 0 0 1 0"
         in="fbSourceGraphic"
         result="fbSourceGraphic" /><feColorMatrix
         result="fbSourceGraphicAlpha"
         in="fbSourceGraphic"
         values="0 0 0 -1 0 0 0 0 -1 0 0 0 0 -1 0 0 0 0 1 0"
         id="feColorMatrix25" /><feColorMatrix
         id="feColorMatrix26"
         values="11 0 0 -5.00456 -5 0 11 0 -5.00456 -5 0 0 11 -5.00456 -5 0 0 0 1 0"
         in="fbSourceGraphic" /></filter></defs><g
     inkscape:label="Layer 1"
     inkscape:groupmode="layer"
     id="layer1"><g
       id="g3"
       transform="matrix(2.7967551,0,0,2.7967551,13.222431,4.9472717)"><g
         id="Layer_2"
         transform="translate(0,18.599998)"> </g><polygon
         transform="matrix(-0.7969725,-1.5726744,1.5726744,-0.7969725,13.284123,96.685097)"
         class="st0"
         points="21.3,3.8 3.6,38.8 22.9,22.4 "
         id="polygon6"
         style="fill:#064f8c"
         clip-path="url(#clipPath15)" /><polygon
         transform="matrix(-1.7630403,-0.01260445,-0.01229541,1.7198193,78.803141,-8.2071902)"
         class="st1"
         points="3.5,39.9 38.6,39.9 14.8,30.3 "
         id="polygon8"
         style="fill:#249847"
         clip-path="url(#clipPath14)" /><polygon
         transform="matrix(-0.78619165,1.5780915,-1.5780915,-0.78619165,86.468298,28.849286)"
         class="st2"
         points="24.7,33.5 39.8,39.6 22.1,4.4 "
         id="polygon10"
         style="fill:#be2128;fill-opacity:1"
         clip-path="url(#clipPath13)" /><rect
         style="fill:#be2128;fill-opacity:1;stroke-width:0.0946037"
         id="rect15"
         width="33.531609"
         height="5.8955998"
         x="15.574714"
         y="58.952736" /><path
         id="path4"
         style="fill:#b3b3b3;stroke-width:0.657098"
         d="M 33.153272,2.0700045 A 33.82571,33.82571 0 0 0 -0.67253349,35.89581 33.82571,33.82571 0 0 0 33.153272,69.721431 33.82571,33.82571 0 0 0 66.978893,35.89581 33.82571,33.82571 0 0 0 33.153272,2.0700045 Z m 0.218032,6.8559954 A 27.197138,27.197138 0 0 1 60.568569,36.123081 27.197138,27.197138 0 0 1 33.371304,63.320346 27.197138,27.197138 0 0 1 6.1742233,36.123081 27.197138,27.197138 0 0 1 33.371304,8.9259999 Z" /></g><path
       style="fill:#b3b3b3;fill-opacity:1;stroke:none;stroke-width:2.34882"
       d="m 90.696387,47.528533 c -0.867243,0.331292 -1.560508,1.28668 -2.200294,1.926466 L 84.409836,53.54126 69.636444,68.314652 65.078695,72.8724 c -0.621956,0.621993 -1.526281,1.285926 -1.692907,2.200291 -0.203128,1.114639 -0.360907,3.537129 0.149403,4.557752 0.821645,1.643281 2.922517,3.107816 4.215289,4.400585 l 5.815058,5.815058 c 0.844609,0.844606 1.749256,2.103803 2.828949,2.643649 0.982203,0.491102 3.998789,0.470392 5.029239,0.09048 0.804006,-0.296437 1.453054,-1.201059 2.043128,-1.791135 l 4.08626,-4.086258 14.773396,-14.773391 4.55774,-4.557749 c 0.61588,-0.615873 1.56352,-1.287335 1.70552,-2.200291 0.18154,-1.167134 0.36965,-3.651589 -0.16201,-4.714913 -0.79362,-1.587242 -2.80999,-2.995288 -4.05812,-4.243421 L 98.554576,50.397992 C 97.664875,49.508294 96.705,48.165446 95.568463,47.597182 94.598361,47.112124 91.707982,47.142102 90.69639,47.52855 m 8.644007,31.001764 -4.872079,4.872076 v 0.15715 l 25.303362,25.30336 8.17252,8.17252 4.40058,4.24342 v 0.15715 c -0.46905,0.61926 -0.30613,1.27659 0.13559,1.88597 0.91784,1.26622 3.64935,5.50902 5.36516,4.06297 1.62137,-1.36647 3.05956,-3.03377 4.55774,-4.53447 0.48656,-0.48737 1.34269,-1.12209 1.34269,-1.88596 0,-0.70558 -0.71564,-1.18007 -1.18564,-1.59601 -1.07488,-0.95127 -3.6308,-4.13993 -5.18629,-2.96174 h -0.15715 l -6.28657,-6.44369 -12.57309,-12.573105 -12.57311,-12.5731 z"
       id="path27" /></g><style
     type="text/css"
     id="style2"> .st0{fill:#064F8C;} .st1{fill:#249847;} .st2{fill:#BE2128;} .st3{fill:#172C36;} .st4{fill:#CDCDCE;} </style></svg>
